<svg width="590" height="190" viewBox="0 0 590 190" fill="none" xmlns="http://www.w3.org/2000/svg">
<path d="M33.3651 39.1611C40.8553 39.1603 47.5007 40.8497 53.3012 44.2293C59.1402 47.5705 63.6925 52.2946 66.9582 58.4017C70.2239 64.4703 71.8573 71.4226 71.8582 79.2586L71.8586 82.9461C71.8596 90.8204 70.228 97.7923 66.9637 103.862C63.6995 109.931 59.1483 114.656 53.3101 118.037C47.472 121.379 40.7886 123.051 33.26 123.052L15.0529 123.054L7.217 123.054L7.20687 39.1638L25.2987 39.1619L33.3651 39.1611ZM53.4783 79.1453C53.4773 70.8484 51.7672 64.5491 48.3481 60.2474C44.929 55.9456 39.9352 53.7951 33.3668 53.7958L25.3004 53.7967L25.307 108.475L33.2582 108.475C39.8266 108.474 44.839 106.303 48.2955 101.962C51.752 97.583 53.4798 91.2449 53.4788 82.948L53.4783 79.1453ZM85.0002 123.046L84.9901 39.1556L103.024 39.1538L103.034 123.044L85.0002 123.046ZM184.62 122.172L184.62 123.036L165.261 123.038L149.816 92.7328L136.737 92.7342L136.74 123.041L118.649 123.043L118.639 39.1521L150.328 39.1488C156.82 39.1481 162.389 40.127 167.037 42.0855C171.724 44.0056 175.316 46.8669 177.813 50.6693C180.31 54.4334 181.559 59.0427 181.56 64.4971C181.56 70.4509 180.274 75.3292 177.701 79.1322C175.128 82.8968 171.441 85.8741 166.64 88.0641L184.62 122.172ZM136.735 78.0994L150.333 78.098C154.635 78.0976 157.9 77.0217 160.127 74.8704C162.355 72.7191 163.468 69.7613 163.468 65.997C163.467 62.1559 162.353 59.1599 160.125 57.0091C157.935 54.8583 154.67 53.7831 150.33 53.7836L136.732 53.785L136.735 78.0994ZM251.109 108.452L251.111 123.029L206.688 123.034L194.473 123.035L194.463 39.1442L212.555 39.1423L251.043 39.1382L251.045 53.773L212.556 53.777L212.559 72.8483L245.343 72.8449L245.344 86.9611L212.56 86.9645L212.563 108.456L251.109 108.452ZM262 123.028L261.99 39.1371L280.024 39.1352L280.034 123.026L262 123.028ZM359.538 53.7616L333.956 53.7643L333.964 123.02L315.93 123.022L315.922 53.7662L290.743 53.7688L290.741 39.1341L333.954 39.1295L359.536 39.1269L359.538 53.7616ZM435.884 82.9079C435.885 91.2816 434.369 98.58 431.335 104.803C428.34 111.026 424.134 115.809 418.718 119.151C413.303 122.493 407.061 124.165 399.994 124.166C392.926 124.166 386.665 122.496 381.21 119.155C375.755 115.814 371.51 111.032 368.475 104.81C365.439 98.5872 363.921 91.2892 363.92 82.9155L363.92 79.2856C363.919 70.9119 365.435 63.6135 368.469 57.3906C371.503 51.1292 375.727 46.3273 381.143 42.9849C386.558 39.6426 392.8 37.971 399.868 37.9703C406.936 37.9695 413.178 39.6398 418.594 42.981C424.049 46.3222 428.294 51.1232 431.329 57.384C434.364 63.6063 435.883 70.9043 435.884 79.278L435.884 82.9079ZM417.561 79.1647C417.56 70.6374 416.023 64.1268 412.95 59.633C409.876 55.1007 405.516 52.8349 399.87 52.8355C394.185 52.8361 389.825 55.0836 386.791 59.5781C383.757 64.0726 382.241 70.6027 382.242 79.1684L382.242 82.9135C382.243 91.4025 383.781 97.9323 386.854 102.503C389.928 107.074 394.307 109.359 399.992 109.358C405.638 109.357 409.978 107.071 413.012 102.5C416.046 97.9289 417.563 91.3988 417.562 82.9098L417.561 79.1647ZM475.352 88.0317C469.667 86.1886 464.77 84.1533 460.659 81.9258C456.587 79.66 453.322 76.8371 450.863 73.4571C448.405 70.0772 447.175 66.0633 447.174 61.4155C447.174 56.7677 448.499 52.6768 451.149 49.1426C453.837 45.5701 457.543 42.8233 462.268 40.9022C466.992 38.9427 472.389 37.9627 478.458 37.962C484.565 37.9614 489.962 39.0556 494.649 41.2445C499.335 43.3951 502.965 46.4484 505.539 50.4045C508.113 54.3222 509.401 58.8162 509.401 63.8865L491.367 63.8884C491.367 60.3546 490.233 57.5507 487.967 55.4767C485.739 53.3643 482.454 52.3083 478.114 52.3088C475.348 52.3091 472.986 52.7126 471.027 53.5195C469.106 54.3263 467.647 55.4404 466.648 56.8617C465.688 58.2446 465.208 59.8003 465.209 61.5289C465.209 64.1024 466.534 66.2917 469.185 68.0968C471.836 69.8635 475.946 71.6107 481.516 73.3387C490.927 76.2186 497.918 79.8285 502.49 84.1685C507.1 88.4701 509.405 94.0011 509.406 100.762C509.406 105.64 508.158 109.846 505.662 113.38C503.166 116.876 499.613 119.546 495.004 121.39C490.433 123.234 485.056 124.157 478.871 124.157C472.956 124.158 467.386 123.141 462.162 121.105C456.976 119.07 452.751 115.959 449.485 111.773C446.22 107.548 444.587 102.382 444.586 96.2742L462.735 96.2723C462.736 101.074 464.119 104.55 466.885 106.701C469.689 108.813 473.684 109.869 478.87 109.868C482.98 109.868 486.072 109.042 488.146 107.39C490.258 105.738 491.314 103.567 491.314 100.879C491.314 98.8813 490.891 97.2104 490.046 95.8661C489.201 94.5218 487.645 93.2352 485.378 92.0062C483.112 90.7773 479.77 89.4525 475.352 88.0317Z" fill="#0E4909"/>
<path opacity="0.5" d="M102.301 103.229L100.791 105.821L100.801 105.827L100.811 105.833L102.301 103.229ZM115.958 117.402L113.313 118.816L113.316 118.823L115.958 117.402ZM115.964 162.862L113.322 161.441L115.964 162.862ZM102.31 177.037L103.801 179.64L103.807 179.637L103.814 179.633L102.31 177.037ZM56.217 182.054L53.217 182.055L53.2174 185.055L56.2174 185.054L56.217 182.054ZM56.2069 98.1638L56.2065 95.1638L53.2065 95.1641L53.2069 98.1641L56.2069 98.1638ZM97.3481 119.247L94.9996 121.114L97.3481 119.247ZM74.3004 112.797L74.3001 109.797L71.3001 109.797L71.3004 112.797L74.3004 112.797ZM74.307 167.475L71.307 167.476L71.3074 170.476L74.3074 170.475L74.307 167.475ZM97.2955 160.962L99.6424 162.831L99.6504 162.821L97.2955 160.962ZM82.3654 101.161C89.3878 101.16 95.5005 102.739 100.791 105.821L103.811 100.637C97.5009 96.9604 90.3228 95.1602 82.3647 95.1611L82.3654 101.161ZM100.811 105.833C106.146 108.886 110.305 113.191 113.313 118.816L118.604 115.987C115.08 109.398 110.134 104.255 103.791 100.625L100.811 105.833ZM113.316 118.823C116.317 124.398 117.857 130.85 117.858 138.259L123.858 138.258C123.857 129.995 122.131 122.542 118.6 115.98L113.316 118.823ZM117.858 138.259L117.859 141.946L123.859 141.946L123.858 138.258L117.858 138.259ZM117.859 141.946C117.86 149.396 116.319 155.867 113.322 161.441L118.606 164.283C122.137 157.718 123.86 150.245 123.859 141.946L117.859 141.946ZM113.322 161.441C110.315 167.031 106.153 171.345 100.807 174.441L103.814 179.633C110.144 175.967 115.084 170.831 118.606 164.283L113.322 161.441ZM100.82 174.433C95.4873 177.486 89.3291 179.051 82.2596 179.052L82.2603 185.052C90.2482 185.051 97.4567 183.272 103.801 179.64L100.82 174.433ZM82.2596 179.052L64.0526 179.054L64.0533 185.054L82.2603 185.052L82.2596 179.052ZM64.0526 179.054L56.2166 179.054L56.2174 185.054L64.0533 185.054L64.0526 179.054ZM59.217 182.054L59.2069 98.1635L53.2069 98.1641L53.217 182.055L59.217 182.054ZM56.2072 101.164L74.299 101.162L74.2983 95.1619L56.2065 95.1638L56.2072 101.164ZM74.299 101.162L82.3654 101.161L82.3647 95.1611L74.2983 95.1619L74.299 101.162ZM105.478 138.145C105.477 129.5 103.705 122.424 99.6966 117.381L94.9996 121.114C97.8295 124.674 99.4773 130.197 99.4783 138.146L105.478 138.145ZM99.6966 117.381C95.5949 112.22 89.6506 109.795 82.3665 109.796L82.3672 115.796C88.2198 115.795 92.263 117.671 94.9996 121.114L99.6966 117.381ZM82.3665 109.796L74.3001 109.797L74.3008 115.797L82.3672 115.796L82.3665 109.796ZM71.3004 112.797L71.307 167.476L77.307 167.475L77.3004 112.796L71.3004 112.797ZM74.3074 170.475L82.2586 170.475L82.2579 164.475L74.3067 164.475L74.3074 170.475ZM82.2586 170.475C89.5531 170.474 95.5094 168.021 99.6424 162.831L94.9486 159.093C92.1686 162.585 88.1 164.474 82.2579 164.475L82.2586 170.475ZM99.6504 162.821C103.685 157.709 105.48 150.604 105.479 141.948L99.4788 141.948C99.4797 149.886 97.8187 155.457 94.9406 159.104L99.6504 162.821ZM105.479 141.948L105.478 138.145L99.4783 138.146L99.4788 141.948L105.479 141.948ZM134 182.046L131 182.047L131.001 185.047L134.001 185.046L134 182.046ZM133.99 98.1556L133.99 95.1556L130.99 95.156L130.99 98.156L133.99 98.1556ZM152.024 98.1538L155.024 98.1534L155.024 95.1534L152.024 95.1538L152.024 98.1538ZM152.034 182.044L152.035 185.044L155.035 185.044L155.034 182.044L152.034 182.044ZM137 182.046L136.99 98.1553L130.99 98.156L131 182.047L137 182.046ZM133.99 101.156L152.025 101.154L152.024 95.1538L133.99 95.1556L133.99 101.156ZM149.024 98.1541L149.034 182.045L155.034 182.044L155.024 98.1534L149.024 98.1541ZM152.034 179.044L134 179.046L134.001 185.046L152.035 185.044L152.034 179.044ZM233.62 181.172L236.62 181.171L236.62 180.429L236.274 179.773L233.62 181.172ZM233.62 182.036L233.621 185.036L236.621 185.036L236.62 182.036L233.62 182.036ZM214.261 182.038L211.588 183.4L212.423 185.038L214.261 185.038L214.261 182.038ZM198.816 151.733L201.489 150.371L200.654 148.733L198.816 148.733L198.816 151.733ZM185.737 151.734L185.736 148.734L182.736 148.735L182.737 151.735L185.737 151.734ZM185.74 182.041L185.741 185.041L188.741 185.041L188.74 182.041L185.74 182.041ZM167.649 182.043L164.649 182.043L164.649 185.043L167.649 185.043L167.649 182.043ZM167.639 98.1521L167.638 95.1521L164.638 95.1524L164.639 98.1524L167.639 98.1521ZM216.037 101.086L214.872 103.85L214.886 103.856L214.9 103.862L216.037 101.086ZM226.813 109.669L224.305 111.316L224.313 111.328L226.813 109.669ZM226.701 138.132L229.178 139.825L229.182 139.819L229.186 139.813L226.701 138.132ZM215.64 147.064L214.395 144.335L211.504 145.653L212.986 148.463L215.64 147.064ZM185.735 137.099L182.735 137.1L182.735 140.1L185.735 140.099L185.735 137.099ZM209.125 116.009L207.023 118.149L207.032 118.158L207.042 118.168L209.125 116.009ZM185.732 112.785L185.732 109.785L182.732 109.785L182.732 112.785L185.732 112.785ZM230.62 181.172L230.62 182.036L236.62 182.036L236.62 181.171L230.62 181.172ZM233.62 179.036L214.261 179.038L214.261 185.038L233.621 185.036L233.62 179.036ZM216.934 180.676L201.489 150.371L196.143 153.095L211.588 183.4L216.934 180.676ZM198.816 148.733L185.736 148.734L185.737 154.734L198.816 154.733L198.816 148.733ZM182.737 151.735L182.74 182.041L188.74 182.041L188.737 151.734L182.737 151.735ZM185.74 179.041L167.648 179.043L167.649 185.043L185.741 185.041L185.74 179.041ZM170.649 182.042L170.639 98.1518L164.639 98.1524L164.649 182.043L170.649 182.042ZM167.639 101.152L199.328 101.149L199.328 95.1488L167.638 95.1521L167.639 101.152ZM199.328 101.149C205.53 101.148 210.683 102.085 214.872 103.85L217.202 98.3209C212.096 96.1693 206.109 95.1481 199.328 95.1488L199.328 101.149ZM214.9 103.862C219.092 105.579 222.177 108.076 224.305 111.316L229.32 108.023C226.454 103.657 222.355 100.432 217.175 98.3095L214.9 103.862ZM224.313 111.328C226.422 114.506 227.559 118.509 227.56 123.497L233.56 123.497C233.559 117.576 232.198 112.36 229.313 108.011L224.313 111.328ZM227.56 123.497C227.56 129.028 226.367 133.273 224.216 136.451L229.186 139.813C232.181 135.386 233.56 129.874 233.56 123.497L227.56 123.497ZM224.224 136.439C222.005 139.686 218.778 142.335 214.395 144.335L216.885 149.794C222.104 147.413 226.25 144.108 229.178 139.825L224.224 136.439ZM212.986 148.463L230.966 182.571L236.274 179.773L218.293 145.665L212.986 148.463ZM185.735 140.099L199.333 140.098L199.332 134.098L185.735 134.099L185.735 140.099ZM199.333 140.098C204.106 140.098 208.237 138.901 211.211 136.028L207.043 131.712C205.562 133.143 203.163 134.098 199.332 134.098L199.333 140.098ZM211.211 136.028C214.147 133.193 215.468 129.387 215.468 124.997L209.468 124.997C209.468 128.136 208.563 130.245 207.043 131.712L211.211 136.028ZM215.468 124.997C215.467 120.55 214.157 116.697 211.209 113.851L207.042 118.168C208.549 119.623 209.468 121.762 209.468 124.997L215.468 124.997ZM211.227 113.869C208.279 110.973 204.128 109.783 199.329 109.784L199.33 115.784C203.213 115.783 205.592 116.743 207.023 118.149L211.227 113.869ZM199.329 109.784L185.732 109.785L185.732 115.785L199.33 115.784L199.329 109.784ZM182.732 112.785L182.735 137.1L188.735 137.099L188.732 112.785L182.732 112.785ZM300.109 167.452L303.109 167.451L303.108 164.451L300.108 164.452L300.109 167.452ZM300.111 182.029L300.111 185.029L303.111 185.029L303.111 182.029L300.111 182.029ZM243.473 182.035L240.473 182.035L240.473 185.035L243.473 185.035L243.473 182.035ZM243.463 98.1442L243.462 95.1442L240.462 95.1445L240.463 98.1445L243.463 98.1442ZM300.043 98.1382L303.043 98.1379L303.042 95.1379L300.042 95.1382L300.043 98.1382ZM300.045 112.773L300.045 115.773L303.045 115.773L303.045 112.773L300.045 112.773ZM261.556 112.777L261.556 109.777L258.556 109.777L258.556 112.777L261.556 112.777ZM261.559 131.848L258.559 131.849L258.559 134.849L261.559 134.848L261.559 131.848ZM294.343 131.845L297.343 131.845L297.342 128.845L294.342 128.845L294.343 131.845ZM294.344 145.961L294.345 148.961L297.345 148.961L297.344 145.961L294.344 145.961ZM261.56 145.965L261.56 142.965L258.56 142.965L258.56 145.965L261.56 145.965ZM261.563 167.456L258.563 167.456L258.563 170.456L261.563 170.456L261.563 167.456ZM297.109 167.452L297.111 182.029L303.111 182.029L303.109 167.451L297.109 167.452ZM300.11 179.029L255.687 179.034L255.688 185.034L300.111 185.029L300.11 179.029ZM255.687 179.034L243.473 179.035L243.473 185.035L255.688 185.034L255.687 179.034ZM246.473 182.034L246.463 98.1438L240.463 98.1445L240.473 182.035L246.473 182.034ZM243.463 101.144L261.555 101.142L261.554 95.1423L243.462 95.1442L243.463 101.144ZM261.555 101.142L300.043 101.138L300.042 95.1382L261.554 95.1423L261.555 101.142ZM297.043 98.1385L297.045 112.773L303.045 112.773L303.043 98.1379L297.043 98.1385ZM300.044 109.773L261.556 109.777L261.557 115.777L300.045 115.773L300.044 109.773ZM258.556 112.777L258.559 131.849L264.559 131.848L264.556 112.777L258.556 112.777ZM261.559 134.848L294.343 134.845L294.342 128.845L261.558 128.848L261.559 134.848ZM291.343 131.845L291.344 145.961L297.344 145.961L297.343 131.845L291.343 131.845ZM294.344 142.961L261.56 142.965L261.561 148.965L294.345 148.961L294.344 142.961ZM258.56 145.965L258.563 167.456L264.563 167.455L264.56 145.964L258.56 145.965ZM261.563 170.456L300.109 170.452L300.108 164.452L261.563 164.456L261.563 170.456ZM311 182.028L308 182.028L308.001 185.028L311.001 185.028L311 182.028ZM310.99 98.1371L310.99 95.1371L307.99 95.1374L307.99 98.1374L310.99 98.1371ZM329.024 98.1352L332.024 98.1349L332.024 95.1349L329.024 95.1352L329.024 98.1352ZM329.034 182.026L329.035 185.026L332.035 185.026L332.034 182.026L329.034 182.026ZM314 182.027L313.99 98.1368L307.99 98.1374L308 182.028L314 182.027ZM310.99 101.137L329.025 101.135L329.024 95.1352L310.99 95.1371L310.99 101.137ZM326.024 98.1355L326.034 182.026L332.034 182.026L332.024 98.1349L326.024 98.1355ZM329.034 179.026L311 179.028L311.001 185.028L329.035 185.026L329.034 179.026ZM408.538 112.762L408.538 115.762L411.538 115.761L411.538 112.761L408.538 112.762ZM382.956 112.764L382.955 109.764L379.955 109.765L379.956 112.765L382.956 112.764ZM382.964 182.02L382.964 185.02L385.964 185.02L385.964 182.02L382.964 182.02ZM364.93 182.022L361.93 182.022L361.93 185.022L364.93 185.022L364.93 182.022ZM364.922 112.766L367.922 112.766L367.921 109.766L364.921 109.766L364.922 112.766ZM339.743 112.769L336.743 112.769L336.743 115.769L339.743 115.769L339.743 112.769ZM339.741 98.1341L339.741 95.1341L336.741 95.1344L336.741 98.1344L339.741 98.1341ZM408.536 98.1269L411.536 98.1265L411.536 95.1265L408.536 95.1269L408.536 98.1269ZM408.537 109.762L382.955 109.764L382.956 115.764L408.538 115.762L408.537 109.762ZM379.956 112.765L379.964 182.02L385.964 182.02L385.956 112.764L379.956 112.765ZM382.964 179.02L364.93 179.022L364.93 185.022L382.964 185.02L382.964 179.02ZM367.93 182.022L367.922 112.766L361.922 112.767L361.93 182.022L367.93 182.022ZM364.921 109.766L339.742 109.769L339.743 115.769L364.922 115.766L364.921 109.766ZM342.743 112.769L342.741 98.1338L336.741 98.1344L336.743 112.769L342.743 112.769ZM339.741 101.134L382.954 101.13L382.954 95.1295L339.741 95.1341L339.741 101.134ZM382.954 101.13L408.536 101.127L408.536 95.1269L382.954 95.1295L382.954 101.13ZM405.536 98.1272L405.538 112.762L411.538 112.761L411.536 98.1265L405.536 98.1272ZM480.335 163.803L477.638 162.488L477.635 162.495L477.632 162.502L480.335 163.803ZM417.469 116.391L420.165 117.705L420.169 117.699L417.469 116.391ZM467.594 101.981L466.019 104.534L466.027 104.539L467.594 101.981ZM480.329 116.384L477.63 117.693L477.633 117.699L480.329 116.384ZM461.95 118.633L459.467 120.317L459.473 120.327L461.95 118.633ZM435.854 161.503L433.365 163.177L435.854 161.503ZM481.884 141.908C481.885 149.92 480.435 156.752 477.638 162.488L483.032 165.118C486.302 158.408 487.885 150.643 487.884 141.908L481.884 141.908ZM477.632 162.502C474.863 168.254 471.029 172.582 466.143 175.598L469.294 180.704C475.239 177.035 479.816 171.798 483.038 165.104L477.632 162.502ZM466.143 175.598C461.252 178.617 455.568 180.165 448.993 180.166L448.994 186.166C456.555 186.165 463.354 184.37 469.294 180.704L466.143 175.598ZM448.993 180.166C442.419 180.166 436.711 178.619 431.777 175.597L428.643 180.713C434.618 184.373 441.433 186.166 448.994 186.166L448.993 180.166ZM431.777 175.597C426.849 172.578 422.977 168.247 420.171 162.494L414.778 165.125C418.042 171.816 422.661 177.049 428.643 180.713L431.777 175.597ZM420.171 162.494C417.373 156.758 415.921 149.927 415.92 141.915L409.92 141.916C409.921 150.651 411.506 158.416 414.778 165.125L420.171 162.494ZM415.92 141.915L415.92 138.285L409.92 138.286L409.92 141.916L415.92 141.915ZM415.92 138.285C415.919 130.273 417.369 123.442 420.165 117.705L414.772 115.076C411.501 121.785 409.919 129.551 409.92 138.286L415.92 138.285ZM420.169 117.699C422.978 111.901 426.833 107.553 431.719 104.538L428.567 99.432C422.621 103.102 418.027 108.357 414.769 115.082L420.169 117.699ZM431.719 104.538C436.609 101.519 442.293 99.971 448.868 99.9703L448.868 93.9703C441.307 93.9711 434.508 95.7658 428.567 99.432L431.719 104.538ZM448.868 99.9703C455.443 99.9696 461.127 101.517 466.019 104.534L469.169 99.4277C463.228 95.7628 456.428 93.9695 448.868 93.9703L448.868 99.9703ZM466.027 104.539C470.95 107.555 474.822 111.901 477.63 117.693L483.029 115.075C479.766 108.345 475.148 103.09 469.161 99.4228L466.027 104.539ZM477.633 117.699C480.431 123.435 481.883 130.266 481.884 138.278L487.884 138.278C487.883 129.542 486.298 121.778 483.026 115.069L477.633 117.699ZM481.884 138.278L481.884 141.908L487.884 141.908L487.884 138.278L481.884 138.278ZM469.561 138.164C469.56 129.349 467.984 122.141 464.426 116.939L459.473 120.327C462.063 124.112 463.56 129.926 463.561 138.165L469.561 138.164ZM464.433 116.949C460.78 111.563 455.474 108.835 448.869 108.836L448.87 114.836C453.559 114.835 456.972 116.638 459.467 120.317L464.433 116.949ZM448.869 108.836C442.245 108.836 436.928 111.532 433.305 116.9L438.278 120.257C440.723 116.635 444.124 114.836 448.87 114.836L448.869 108.836ZM433.305 116.9C429.794 122.101 428.241 129.324 428.242 138.169L434.242 138.168C434.241 129.882 435.721 124.044 438.278 120.257L433.305 116.9ZM428.242 138.169L428.242 141.914L434.242 141.913L434.242 138.168L428.242 138.169ZM428.242 141.914C428.243 150.699 429.823 157.911 433.365 163.177L438.344 159.829C435.738 155.954 434.243 150.106 434.242 141.913L428.242 141.914ZM433.365 163.177C437.017 168.608 442.347 171.359 448.992 171.358L448.991 165.358C444.267 165.358 440.839 163.539 438.344 159.829L433.365 163.177ZM448.992 171.358C455.608 171.357 460.903 168.597 464.512 163.159L459.513 159.841C457.054 163.546 453.668 165.357 448.991 165.358L448.992 171.358ZM464.512 163.159C468.006 157.895 469.563 150.689 469.562 141.91L463.562 141.91C463.563 150.108 462.087 155.963 459.513 159.841L464.512 163.159ZM469.562 141.91L469.561 138.164L463.561 138.165L463.562 141.91L469.562 141.91ZM524.352 147.032L523.427 149.885L523.434 149.888L524.352 147.032ZM509.659 140.926L508.201 143.547L508.215 143.555L508.23 143.563L509.659 140.926ZM500.149 108.143L497.751 106.339L497.748 106.343L500.149 108.143ZM511.268 99.9022L512.398 102.681L512.407 102.677L512.417 102.673L511.268 99.9022ZM543.649 100.245L542.379 102.963L542.388 102.967L542.397 102.971L543.649 100.245ZM554.539 109.405L552.025 111.041L552.032 111.052L554.539 109.405ZM558.401 122.887L558.402 125.887L561.402 125.886L561.401 122.886L558.401 122.887ZM540.367 122.888L537.367 122.889L537.367 125.889L540.367 125.888L540.367 122.888ZM536.967 114.477L534.903 116.654L534.922 116.672L534.941 116.69L536.967 114.477ZM520.027 112.519L518.884 109.746L518.875 109.75L518.865 109.754L520.027 112.519ZM515.648 115.862L513.194 114.137L513.189 114.144L513.184 114.151L515.648 115.862ZM518.185 127.097L516.496 129.576L516.509 129.585L516.521 129.593L518.185 127.097ZM530.516 132.339L529.627 135.204L529.638 135.207L530.516 132.339ZM551.49 143.169L549.424 145.344L549.434 145.353L549.443 145.362L551.49 143.169ZM554.662 172.38L557.104 174.124L557.108 174.117L557.113 174.111L554.662 172.38ZM544.004 180.39L542.889 177.605L542.881 177.608L544.004 180.39ZM511.162 180.105L510.066 182.898L510.073 182.901L511.162 180.105ZM498.485 170.773L496.112 172.607L496.12 172.618L498.485 170.773ZM493.586 155.274L493.585 152.274L490.585 152.275L490.586 155.275L493.586 155.274ZM511.735 155.272L514.735 155.272L514.735 152.272L511.735 152.272L511.735 155.272ZM515.885 165.701L514.043 168.069L514.062 168.083L514.08 168.097L515.885 165.701ZM537.146 166.39L535.298 164.027L535.287 164.035L535.277 164.043L537.146 166.39ZM534.378 151.006L532.948 153.643L534.378 151.006ZM525.278 144.178C519.721 142.377 515.001 140.408 511.089 138.288L508.23 143.563C512.539 145.898 517.613 148.001 523.427 149.885L525.278 144.178ZM511.118 138.304C507.383 136.226 504.464 133.681 502.289 130.692L497.437 134.222C500.181 137.993 503.792 141.094 508.201 143.547L511.118 138.304ZM502.289 130.692C500.245 127.882 499.175 124.503 499.174 120.415L493.174 120.416C493.175 125.623 494.564 130.272 497.437 134.222L502.289 130.692ZM499.174 120.415C499.174 116.38 500.309 112.929 502.549 109.942L497.748 106.343C494.688 110.425 493.174 115.155 493.174 120.416L499.174 120.415ZM502.546 109.947C504.864 106.866 508.104 104.427 512.398 102.681L510.138 97.1232C504.983 99.2194 500.81 102.274 497.751 106.339L502.546 109.947ZM512.417 102.673C516.716 100.89 521.711 99.9626 527.458 99.962L527.457 93.962C521.066 93.9627 515.268 94.9951 510.118 97.1311L512.417 102.673ZM527.458 99.962C533.205 99.9614 538.156 100.99 542.379 102.963L544.918 97.5264C539.769 95.1212 533.925 93.9614 527.457 93.962L527.458 99.962ZM542.397 102.971C546.618 104.908 549.789 107.604 552.025 111.041L557.054 107.768C554.142 103.293 550.052 99.8824 544.9 97.5179L542.397 102.971ZM552.032 111.052C554.258 114.44 555.401 118.352 555.401 122.887L561.401 122.886C561.401 117.281 559.968 112.204 557.047 107.757L552.032 111.052ZM558.401 119.887L540.367 119.888L540.367 125.888L558.402 125.887L558.401 119.887ZM543.367 122.888C543.367 118.652 541.975 114.993 538.992 112.263L534.941 116.69C536.491 118.108 537.367 120.057 537.367 122.889L543.367 122.888ZM539.031 112.3C536.05 109.474 531.903 108.308 527.113 108.309L527.114 114.309C531.005 114.308 533.427 115.255 534.903 116.654L539.031 112.3ZM527.113 108.309C524.07 108.309 521.298 108.751 518.884 109.746L521.17 115.293C522.674 114.674 524.626 114.309 527.114 114.309L527.113 108.309ZM518.865 109.754C516.529 110.735 514.576 112.169 513.194 114.137L518.103 117.586C518.718 116.712 519.684 115.917 521.189 115.285L518.865 109.754ZM513.184 114.151C511.865 116.05 511.208 118.206 511.209 120.529L517.209 120.529C517.208 119.394 517.511 118.439 518.113 117.573L513.184 114.151ZM511.209 120.529C511.209 124.343 513.254 127.368 516.496 129.576L519.874 124.617C517.815 123.215 517.209 121.862 517.209 120.529L511.209 120.529ZM516.521 129.593C519.533 131.6 523.97 133.449 529.627 135.204L531.405 129.473C525.922 127.772 522.138 126.127 519.849 124.6L516.521 129.593ZM529.638 135.207C538.83 138.02 545.326 141.454 549.424 145.344L553.555 140.993C548.51 136.203 541.024 132.417 531.393 129.47L529.638 135.207ZM549.443 145.362C553.397 149.052 555.405 153.766 555.406 159.762L561.406 159.761C561.405 152.236 558.802 145.888 553.536 140.975L549.443 145.362ZM555.406 159.762C555.406 164.102 554.306 167.685 552.212 170.649L557.113 174.111C560.011 170.007 561.406 165.177 561.406 159.761L555.406 159.762ZM552.221 170.637C550.107 173.596 547.051 175.94 542.889 177.605L545.118 183.175C550.176 181.152 554.224 178.155 557.104 174.124L552.221 170.637ZM542.881 177.608C538.745 179.277 533.765 180.157 527.871 180.157L527.872 186.157C534.346 186.157 540.121 185.192 545.126 183.172L542.881 177.608ZM527.871 180.157C522.308 180.158 517.109 179.203 512.251 177.31L510.073 182.901C515.663 185.079 521.605 186.158 527.872 186.157L527.871 180.157ZM512.258 177.313C507.547 175.464 503.769 172.669 500.851 168.928L496.12 172.618C499.732 177.249 504.406 180.676 510.066 182.898L512.258 177.313ZM500.859 168.938C498.056 165.312 496.587 160.817 496.586 155.274L490.586 155.275C490.587 161.946 492.383 167.783 496.112 172.607L500.859 168.938ZM493.586 158.274L511.736 158.272L511.735 152.272L493.585 152.274L493.586 158.274ZM508.735 155.273C508.736 160.634 510.3 165.158 514.043 168.069L517.726 163.332C515.938 161.942 514.736 159.513 514.735 155.272L508.735 155.273ZM514.08 168.097C517.6 170.749 522.33 171.869 527.87 171.868L527.869 165.868C523.038 165.869 519.778 164.877 517.69 163.304L514.08 168.097ZM527.87 171.868C532.306 171.868 536.187 170.988 539.015 168.736L535.277 164.043C533.956 165.095 531.653 165.868 527.869 165.868L527.87 171.868ZM538.994 168.753C541.836 166.531 543.314 163.487 543.314 159.878L537.314 159.879C537.314 161.648 536.681 162.945 535.298 164.027L538.994 168.753ZM543.314 159.878C543.314 157.461 542.8 155.201 541.585 153.269L536.506 156.463C536.982 157.22 537.314 158.302 537.314 159.879L543.314 159.878ZM541.585 153.269C540.345 151.297 538.275 149.707 535.808 148.369L532.948 153.643C535.014 154.764 536.056 155.747 536.506 156.463L541.585 153.269ZM535.808 148.369C533.298 147.008 529.749 145.616 525.271 144.176L523.434 149.888C527.791 151.289 530.926 152.547 532.948 153.643L535.808 148.369Z" fill="#0E4909"/>
</svg>
