<svg width="437" height="125" viewBox="0 0 437 125" fill="none" xmlns="http://www.w3.org/2000/svg">
<path d="M41.8316 43.6315H86.1263C94.1544 43.6315 101.088 46.4946 106.926 52.221C112.709 58.0034 115.6 64.9368 115.6 73.021C115.6 81.2175 112.709 88.2069 106.926 93.9894C101.144 99.7157 94.2106 102.579 86.1263 102.579H41.8316V43.6315ZM76.3579 97.6946C79.5579 97.6946 81.8597 96.6561 83.2632 94.5789C84.6106 92.5578 85.4527 89.6946 85.7895 85.9894C86.0702 83.5753 86.2106 79.2525 86.2106 73.021C86.2106 68.1929 86.0421 63.5894 85.7053 59.2104C85.3684 55.8982 84.5263 53.3718 83.179 51.6315C81.7755 49.5543 79.5018 48.5157 76.3579 48.5157H71.3053V97.6946H76.3579ZM119.71 43.6315H176.047C178.798 43.6315 181.324 44.3332 183.626 45.7368C185.984 47.0841 187.836 48.9368 189.184 51.2946C190.587 53.5964 191.289 56.1227 191.289 58.8736C191.289 62.5227 190.166 65.835 187.92 68.8104C185.675 71.7859 182.84 73.6946 179.415 74.5368C182.447 75.3789 184.917 76.9789 186.826 79.3368C188.791 81.6946 189.773 84.3613 189.773 87.3368V102.579H161.563V84.3052C161.563 82.5087 161.226 81.1052 160.552 80.0946C159.766 78.9157 158.868 78.0455 157.857 77.4841C156.734 76.8666 155.471 76.4175 154.068 76.1368C152.608 75.8561 151.233 75.6876 149.941 75.6315L147.668 75.5473V102.579H119.71V43.6315ZM150.615 70.6631C152.636 70.6631 154.489 70.1859 156.173 69.2315C157.913 68.221 159.261 66.8736 160.215 65.1894C161.226 63.449 161.731 61.5964 161.731 59.6315C161.731 57.6104 161.226 55.7578 160.215 54.0736C159.261 52.3332 157.913 50.9578 156.173 49.9473C154.489 48.9368 152.636 48.4315 150.615 48.4315H147.668V70.7473L150.615 70.6631ZM215.688 43.6315H240.278L266.383 102.579H234.551L225.709 83.042H207.183L199.604 102.579H193.457L215.688 43.6315ZM223.351 77.9052L215.688 60.8104L209.036 77.9052H223.351ZM262.555 73.021C262.555 63.0841 264.997 55.7017 269.882 50.8736C273.025 47.7297 276.534 45.6525 280.408 44.642C284.282 43.6315 289.362 43.1262 295.65 43.1262C301.489 43.1262 306.176 43.5473 309.713 44.3894C313.306 45.1753 316.254 46.8876 318.555 49.5262C320.464 51.7157 321.952 54.3824 323.018 57.5262C324.141 60.6139 324.787 63.6455 324.955 66.621H320.155C319.931 64.0946 319.313 61.5122 318.303 58.8736C317.348 56.1789 315.832 53.8771 313.755 51.9683C311.678 50.0034 309.039 49.021 305.839 49.021C302.864 49.021 300.394 50.3403 298.429 52.9789C296.745 55.2806 295.538 58.3403 294.808 62.1578C294.134 65.5262 293.797 69.1473 293.797 73.021C293.797 79.3648 294.583 84.6701 296.155 88.9368C298.232 94.3824 301.461 97.1052 305.839 97.1052V73.7789H331.608V102.579C323.524 102.579 314.373 102.691 304.155 102.916L295.65 103C289.475 103 284.45 102.41 280.576 101.231C276.759 99.9964 273.475 98.0034 270.724 95.2525C265.278 89.8069 262.555 82.3964 262.555 73.021ZM380.785 64.7683C387.466 66.5648 392.462 68.9508 395.774 71.9262C399.087 74.8455 400.743 78.6631 400.743 83.3789C400.743 87.1403 399.564 90.5087 397.206 93.4841C394.848 96.4596 391.367 98.7894 386.764 100.474C382.216 102.158 376.687 103 370.174 103C362.483 103 355.69 102.017 349.795 100.053C343.957 98.0315 339.381 95.5894 336.069 92.7262L338.848 88.9368C341.767 91.2385 345.445 93.2034 349.88 94.8315C354.315 96.4596 359.087 97.2736 364.195 97.2736C367.508 97.2736 370.006 96.7964 371.69 95.842C373.43 94.8876 374.301 93.5403 374.301 91.7999C374.301 88.7683 371.297 86.4104 365.29 84.7262L354.343 81.5262C348.392 79.7297 343.788 77.2315 340.532 74.0315C337.332 70.8315 335.732 67.042 335.732 62.6631C335.732 59.0139 336.883 55.7017 339.185 52.7262C341.487 49.7508 344.827 47.421 349.206 45.7368C353.641 43.9964 358.946 43.1262 365.122 43.1262C371.016 43.1262 376.434 43.7999 381.374 45.1473C386.371 46.4946 390.441 48.1227 393.585 50.0315L390.806 53.9052C388.167 52.3894 384.995 51.0982 381.29 50.0315C377.641 48.9648 373.795 48.4315 369.753 48.4315C366.216 48.4315 363.494 48.9929 361.585 50.1157C359.732 51.1824 358.806 52.6701 358.806 54.5789C358.806 56.0385 359.508 57.3297 360.911 58.4525C362.315 59.5192 364.981 60.5859 368.911 61.6525L380.785 64.7683Z" fill="#F36210"/>
<g filter="url(#filter0_d)">
<path d="M36.5684 37.0526H80.8632C88.8912 37.0526 95.8246 39.9158 101.663 45.6421C107.446 51.4246 110.337 58.3579 110.337 66.4421C110.337 74.6386 107.446 81.6281 101.663 87.4105C95.8807 93.1368 88.9474 96 80.8632 96H36.5684V37.0526ZM71.0947 91.1158C74.2947 91.1158 76.5965 90.0772 78 88C79.3474 85.9789 80.1895 83.1158 80.5263 79.4105C80.807 76.9965 80.9474 72.6737 80.9474 66.4421C80.9474 61.614 80.7789 57.0105 80.4421 52.6316C80.1053 49.3193 79.2632 46.793 77.9158 45.0526C76.5123 42.9754 74.2386 41.9368 71.0947 41.9368H66.0421V91.1158H71.0947ZM114.447 37.0526H170.784C173.534 37.0526 176.061 37.7544 178.363 39.1579C180.72 40.5053 182.573 42.3579 183.92 44.7158C185.324 47.0175 186.026 49.5439 186.026 52.2947C186.026 55.9439 184.903 59.2561 182.657 62.2316C180.412 65.207 177.577 67.1158 174.152 67.9579C177.184 68.8 179.654 70.4 181.563 72.7579C183.527 75.1158 184.51 77.7825 184.51 80.7579V96H156.299V77.7263C156.299 75.9298 155.962 74.5263 155.289 73.5158C154.503 72.3368 153.605 71.4667 152.594 70.9053C151.471 70.2877 150.208 69.8386 148.805 69.5579C147.345 69.2772 145.97 69.1088 144.678 69.0526L142.405 68.9684V96H114.447V37.0526ZM145.352 64.0842C147.373 64.0842 149.226 63.607 150.91 62.6526C152.65 61.6421 153.998 60.2947 154.952 58.6105C155.962 56.8702 156.468 55.0175 156.468 53.0526C156.468 51.0316 155.962 49.1789 154.952 47.4947C153.998 45.7544 152.65 44.3789 150.91 43.3684C149.226 42.3579 147.373 41.8526 145.352 41.8526H142.405V64.1684L145.352 64.0842ZM210.425 37.0526H235.014L261.12 96H229.288L220.446 76.4632H201.92L194.341 96H188.193L210.425 37.0526ZM218.088 71.3263L210.425 54.2316L203.772 71.3263H218.088ZM257.292 66.4421C257.292 56.5053 259.734 49.1228 264.618 44.2947C267.762 41.1509 271.271 39.0737 275.145 38.0632C279.018 37.0526 284.099 36.5474 290.387 36.5474C296.225 36.5474 300.913 36.9684 304.45 37.8105C308.043 38.5965 310.99 40.3088 313.292 42.9474C315.201 45.1368 316.689 47.8035 317.755 50.9474C318.878 54.0351 319.524 57.0667 319.692 60.0421H314.892C314.668 57.5158 314.05 54.9333 313.039 52.2947C312.085 49.6 310.569 47.2982 308.492 45.3895C306.415 43.4246 303.776 42.4421 300.576 42.4421C297.601 42.4421 295.131 43.7614 293.166 46.4C291.482 48.7018 290.275 51.7614 289.545 55.5789C288.871 58.9474 288.534 62.5684 288.534 66.4421C288.534 72.786 289.32 78.0912 290.892 82.3579C292.969 87.8035 296.197 90.5263 300.576 90.5263V67.2H326.345V96C318.261 96 309.11 96.1123 298.892 96.3368L290.387 96.4211C284.211 96.4211 279.187 95.8316 275.313 94.6526C271.496 93.4175 268.211 91.4246 265.461 88.6737C260.015 83.2281 257.292 75.8175 257.292 66.4421ZM375.522 58.1895C382.202 59.986 387.199 62.3719 390.511 65.3474C393.823 68.2667 395.48 72.0842 395.48 76.8C395.48 80.5614 394.301 83.9298 391.943 86.9053C389.585 89.8807 386.104 92.2105 381.501 93.8947C376.953 95.5789 371.423 96.4211 364.911 96.4211C357.22 96.4211 350.427 95.4386 344.532 93.4737C338.694 91.4526 334.118 89.0105 330.806 86.1474L333.585 82.3579C336.504 84.6596 340.181 86.6246 344.616 88.2526C349.052 89.8807 353.823 90.6947 358.932 90.6947C362.244 90.6947 364.743 90.2175 366.427 89.2632C368.167 88.3088 369.037 86.9614 369.037 85.2211C369.037 82.1895 366.034 79.8316 360.027 78.1474L349.08 74.9474C343.129 73.1509 338.525 70.6526 335.269 67.4526C332.069 64.2526 330.469 60.4632 330.469 56.0842C330.469 52.4351 331.62 49.1228 333.922 46.1474C336.223 43.1719 339.564 40.8421 343.943 39.1579C348.378 37.4175 353.683 36.5474 359.859 36.5474C365.753 36.5474 371.171 37.2211 376.111 38.5684C381.108 39.9158 385.178 41.5439 388.322 43.4526L385.543 47.3263C382.904 45.8105 379.732 44.5193 376.027 43.4526C372.378 42.386 368.532 41.8526 364.49 41.8526C360.953 41.8526 358.23 42.414 356.322 43.5368C354.469 44.6035 353.543 46.0912 353.543 48C353.543 49.4596 354.244 50.7509 355.648 51.8737C357.052 52.9404 359.718 54.007 363.648 55.0737L375.522 58.1895Z" fill="black"/>
</g>
<defs>
<filter id="filter0_d" x="32.5684" y="36.5474" width="366.911" height="67.8737" filterUnits="userSpaceOnUse" color-interpolation-filters="sRGB">
<feFlood flood-opacity="0" result="BackgroundImageFix"/>
<feColorMatrix in="SourceAlpha" type="matrix" values="0 0 0 0 0 0 0 0 0 0 0 0 0 0 0 0 0 0 127 0"/>
<feOffset dy="4"/>
<feGaussianBlur stdDeviation="2"/>
<feColorMatrix type="matrix" values="0 0 0 0 0 0 0 0 0 0 0 0 0 0 0 0 0 0 0.25 0"/>
<feBlend mode="normal" in2="BackgroundImageFix" result="effect1_dropShadow"/>
<feBlend mode="normal" in="SourceGraphic" in2="effect1_dropShadow" result="shape"/>
</filter>
</defs>
</svg>
